<svg version="1" xmlns="http://www.w3.org/2000/svg" width="682.667" height="682.667" viewBox="0 0 512.000000 512.000000"><path d="M153.5 37.8c-11.3 2.2-19 6.4-27.5 15.1-11.3 11.5-16.1 22.9-16.2 38.8 0 14.4 5.5 27.7 16.1 38.3 3.7 3.7 7.7 7.1 8.9 7.4l2.2.7v235.4l-3.6 2c-8.8 4.7-19.5 20.6-22.4 33.4-2.8 12.2-.4 28.3 5.8 39 3.8 6.6 12.7 15.7 19 19.5 26.3 15.8 59.8 7.6 75.8-18.5 5.8-9.6 7.7-16.8 7.6-29.1-.1-16.8-7.4-31.4-21-42.3l-6.3-5 .2-7c.4-12.8 3.2-20.3 9.8-26.5 6.3-5.9 23-13.4 46.6-20.9 51.2-16.4 72.8-27.7 92.8-48.6 17.5-18.3 29.5-45.7 32.3-74 1.1-11.6 1.2-13 1.3-16.7.1-3 .6-4 2.9-5.2 3.4-1.9 11-9.1 14.1-13.4 13.7-19.3 13.7-46.6 0-64.5-10.8-14.2-25.1-21.7-42.4-22.3-20.3-.6-38.3 8.8-48.7 25.6-6.2 9.9-8.1 17.1-8 29.9.1 9.7 2.4 18.2 7.4 26.9 3.2 5.7 12 15 16.9 17.9l3 1.8-.6 9.5c-1 17.7-4.9 30-13.3 41.2-8.3 11-14.3 15.9-28.2 22.5-12.3 6-16.2 7.4-55.4 20.3-8.8 2.9-19.3 6.8-23.3 8.6l-7.3 3.3V139.1l4.3-3c25.6-17.8 30.6-55.9 10.5-79.7-13.2-15.7-33.2-22.7-53.3-18.6zm23.1 29.1c17.3 9 20.5 31.3 6.5 44.4-11.1 10.4-26.8 10.1-37.6-.6-6.1-6.2-8.5-12-8.1-20.4.5-11.9 8-21.6 19.6-25.4 4.2-1.4 15.4-.3 19.6 2zm181.1 35.7c5.2 1.9 12.2 8.5 14.7 13.9 1.1 2.3 2 6.7 2.2 10.6.3 5.9-.1 7.6-2.7 12.8-5.1 10.2-13.5 15.3-25.1 15.2-22.5-.2-34.8-26.4-20.8-44.1 7.5-9.5 19.7-12.7 31.7-8.4zM176.1 395.7c5.3 2.5 10.3 7.3 13.2 12.7 3 5.8 3 18.5 0 24.1-2.8 5.2-7.7 10.1-12.7 12.8-5.8 3-18.4 3-24.2 0-9.7-5.1-14.9-13.7-14.8-24.8 0-20.2 20-33.1 38.5-24.8z"/></svg>